<svg width="216" height="528" viewBox="0 0 216 528" fill="none" xmlns="http://www.w3.org/2000/svg">
<g opacity="0.4">
<path d="M-25.5 3L1 29.5L-25.5 56L1 82.5L-25.5 109L1 135.5L-25.5 162L1 188.5L-25.5 215L1 241.5L-25.5 268L1 294.5L-25.5 321L1 347.5L-25.5 374L1 400.5L-25.5 427L1 453.5L-25.5 480L1 506.5L-25.5 533L1 559.5L-25.5 586" stroke="#F2F2F2" stroke-width="6" stroke-linecap="round" stroke-linejoin="round" stroke-dasharray="8 12"/>
<path d="M1 3L27.5 29.5L1 56L27.5 82.5L1 109L27.5 135.5L1 162L27.5 188.5L1 215L27.5 241.5L1 268L27.5 294.5L1 321L27.5 347.5L1 374L27.5 400.5L1 427L27.5 453.5L1 480L27.5 506.5L1 533L27.5 559.5L1 586" stroke="#F2F2F2" stroke-width="6" stroke-linecap="round" stroke-linejoin="round" stroke-dasharray="8 12"/>
<path d="M27.5 3L54 29.5L27.5 56L54 82.5L27.5 109L54 135.5L27.5 162L54 188.5L27.5 215L54 241.5L27.5 268L54 294.5L27.5 321L54 347.5L27.5 374L54 400.5L27.5 427L54 453.5L27.5 480L54 506.5L27.5 533L54 559.5L27.5 586" stroke="#F2F2F2" stroke-width="6" stroke-linecap="round" stroke-linejoin="round" stroke-dasharray="8 12"/>
<path d="M54 3L80.5 29.5L54 56L80.5 82.5L54 109L80.5 135.5L54 162L80.5 188.5L54 215L80.5 241.5L54 268L80.5 294.5L54 321L80.5 347.5L54 374L80.5 400.5L54 427L80.5 453.5L54 480L80.5 506.5L54 533L80.5 559.5L54 586" stroke="#F2F2F2" stroke-width="6" stroke-linecap="round" stroke-linejoin="round" stroke-dasharray="8 12"/>
<path d="M80.5 3L107 29.5L80.5 56L107 82.5L80.5 109L107 135.5L80.5 162L107 188.5L80.5 215L107 241.5L80.5 268L107 294.5L80.5 321L107 347.5L80.5 374L107 400.5L80.5 427L107 453.5L80.5 480L107 506.5L80.5 533L107 559.5L80.5 586" stroke="#F2F2F2" stroke-width="6" stroke-linecap="round" stroke-linejoin="round" stroke-dasharray="8 12"/>
<path d="M107 3L133.5 29.5L107 56L133.5 82.5L107 109L133.5 135.5L107 162L133.5 188.5L107 215L133.5 241.5L107 268L133.5 294.5L107 321L133.5 347.5L107 374L133.5 400.5L107 427L133.5 453.5L107 480L133.5 506.5L107 533L133.5 559.5L107 586" stroke="#F2F2F2" stroke-width="6" stroke-linecap="round" stroke-linejoin="round" stroke-dasharray="8 12"/>
<path d="M133.5 3L160 29.5L133.5 56L160 82.5L133.5 109L160 135.5L133.5 162L160 188.5L133.5 215L160 241.5L133.5 268L160 294.5L133.5 321L160 347.5L133.5 374L160 400.5L133.5 427L160 453.5L133.5 480L160 506.5L133.5 533L160 559.5L133.5 586" stroke="#F2F2F2" stroke-width="6" stroke-linecap="round" stroke-linejoin="round" stroke-dasharray="8 12"/>
<path d="M160 3L186.5 29.5L160 56L186.5 82.5L160 109L186.5 135.5L160 162L186.5 188.5L160 215L186.5 241.5L160 268L186.5 294.5L160 321L186.5 347.5L160 374L186.5 400.5L160 427L186.5 453.5L160 480L186.5 506.5L160 533L186.5 559.5L160 586" stroke="#F2F2F2" stroke-width="6" stroke-linecap="round" stroke-linejoin="round" stroke-dasharray="8 12"/>
<path d="M186.5 3L213 29.5L186.5 56L213 82.5L186.5 109L213 135.5L186.5 162L213 188.5L186.5 215L213 241.5L186.5 268L213 294.5L186.5 321L213 347.5L186.5 374L213 400.5L186.5 427L213 453.5L186.5 480L213 506.5L186.5 533L213 559.5L186.5 586" stroke="#F2F2F2" stroke-width="6" stroke-linecap="round" stroke-linejoin="round" stroke-dasharray="8 12"/>
</g>
</svg>
