<svg width="387" height="324" viewBox="0 0 387 324" fill="none" xmlns="http://www.w3.org/2000/svg">
<g opacity="0.8">
<path d="M586 3.00002L559.5 29.5L533 3.00002L506.5 29.5L480 3.00002L453.5 29.5L427 3.00002L400.5 29.5L374 3.00001L347.5 29.5L321 3.00001L294.5 29.5L268 3.00001L241.5 29.5L215 3.00001L188.5 29.5L162 3L135.5 29.5L109 3L82.5 29.5L56 3L29.5 29.5L3 3" stroke="#F2F2F2" stroke-width="6" stroke-linecap="round" stroke-linejoin="round" stroke-dasharray="8 12"/>
<path d="M586 29.5L559.5 56L533 29.5L506.5 56L480 29.5L453.5 56L427 29.5L400.5 56L374 29.5L347.5 56L321 29.5L294.5 56L268 29.5L241.5 56L215 29.5L188.5 56L162 29.5L135.5 56L109 29.5L82.5 56L56 29.5L29.5 56L3 29.5" stroke="#F2F2F2" stroke-width="6" stroke-linecap="round" stroke-linejoin="round" stroke-dasharray="8 12"/>
<path d="M586 56L559.5 82.5L533 56L506.5 82.5L480 56L453.5 82.5L427 56L400.5 82.5L374 56L347.5 82.5L321 56L294.5 82.5L268 56L241.5 82.5L215 56L188.5 82.5L162 56L135.5 82.5L109 56L82.5 82.5L56 56L29.5 82.5L3 56" stroke="#F2F2F2" stroke-width="6" stroke-linecap="round" stroke-linejoin="round" stroke-dasharray="8 12"/>
<path d="M586 82.5L559.5 109L533 82.5L506.5 109L480 82.5L453.5 109L427 82.5L400.5 109L374 82.5L347.5 109L321 82.5L294.5 109L268 82.5L241.5 109L215 82.5L188.5 109L162 82.5L135.5 109L109 82.5L82.5 109L56 82.5L29.5 109L3 82.5" stroke="#F2F2F2" stroke-width="6" stroke-linecap="round" stroke-linejoin="round" stroke-dasharray="8 12"/>
<path d="M586 109L559.5 135.5L533 109L506.5 135.5L480 109L453.5 135.5L427 109L400.5 135.5L374 109L347.5 135.5L321 109L294.5 135.5L268 109L241.5 135.5L215 109L188.5 135.5L162 109L135.5 135.5L109 109L82.5 135.5L56 109L29.5 135.5L3 109" stroke="#F2F2F2" stroke-width="6" stroke-linecap="round" stroke-linejoin="round" stroke-dasharray="8 12"/>
<path d="M586 135.5L559.5 162L533 135.5L506.5 162L480 135.5L453.5 162L427 135.5L400.5 162L374 135.5L347.5 162L321 135.5L294.5 162L268 135.5L241.5 162L215 135.5L188.5 162L162 135.5L135.5 162L109 135.5L82.5 162L56 135.5L29.5 162L3 135.5" stroke="#F2F2F2" stroke-width="6" stroke-linecap="round" stroke-linejoin="round" stroke-dasharray="8 12"/>
<path d="M586 162L559.5 188.5L533 162L506.5 188.5L480 162L453.5 188.5L427 162L400.5 188.5L374 162L347.5 188.5L321 162L294.5 188.5L268 162L241.5 188.5L215 162L188.5 188.5L162 162L135.5 188.5L109 162L82.5 188.5L56 162L29.5 188.5L3 162" stroke="#F2F2F2" stroke-width="6" stroke-linecap="round" stroke-linejoin="round" stroke-dasharray="8 12"/>
<path d="M586 188.5L559.5 215L533 188.5L506.5 215L480 188.5L453.5 215L427 188.5L400.5 215L374 188.5L347.5 215L321 188.5L294.5 215L268 188.5L241.5 215L215 188.5L188.5 215L162 188.5L135.5 215L109 188.5L82.5 215L56 188.5L29.5 215L3 188.5" stroke="#F2F2F2" stroke-width="6" stroke-linecap="round" stroke-linejoin="round" stroke-dasharray="8 12"/>
<path d="M586 215L559.5 241.5L533 215L506.5 241.5L480 215L453.5 241.5L427 215L400.5 241.5L374 215L347.5 241.5L321 215L294.5 241.5L268 215L241.5 241.5L215 215L188.5 241.5L162 215L135.5 241.5L109 215L82.5 241.5L56 215L29.5 241.5L3 215" stroke="#F2F2F2" stroke-width="6" stroke-linecap="round" stroke-linejoin="round" stroke-dasharray="8 12"/>
<path d="M586 241.5L559.5 268L533 241.5L506.5 268L480 241.5L453.5 268L427 241.5L400.5 268L374 241.5L347.5 268L321 241.5L294.5 268L268 241.5L241.5 268L215 241.5L188.5 268L162 241.5L135.5 268L109 241.5L82.5 268L56 241.5L29.5 268L3 241.5" stroke="#F2F2F2" stroke-width="6" stroke-linecap="round" stroke-linejoin="round" stroke-dasharray="8 12"/>
<path d="M586 268L559.5 294.5L533 268L506.5 294.5L480 268L453.5 294.5L427 268L400.5 294.5L374 268L347.5 294.5L321 268L294.5 294.5L268 268L241.5 294.5L215 268L188.5 294.5L162 268L135.5 294.5L109 268L82.5 294.5L56 268L29.5 294.5L3 268" stroke="#F2F2F2" stroke-width="6" stroke-linecap="round" stroke-linejoin="round" stroke-dasharray="8 12"/>
<path d="M586 294.5L559.5 321L533 294.5L506.5 321L480 294.5L453.5 321L427 294.5L400.5 321L374 294.5L347.5 321L321 294.5L294.5 321L268 294.5L241.5 321L215 294.5L188.5 321L162 294.5L135.5 321L109 294.5L82.5 321L56 294.5L29.5 321L3 294.5" stroke="#F2F2F2" stroke-width="6" stroke-linecap="round" stroke-linejoin="round" stroke-dasharray="8 12"/>
</g>
</svg>
